<?xml version="1.0" ?><!DOCTYPE svg  PUBLIC '-//W3C//DTD SVG 1.1//EN'  'http://www.w3.org/Graphics/SVG/1.1/DTD/svg11.dtd'><svg enable-background="new 0 0 512 512" height="512px" id="Layer_4" version="1.1" viewBox="0 0 512 512" width="512px" xml:space="preserve" xmlns="http://www.w3.org/2000/svg" xmlns:xlink="http://www.w3.org/1999/xlink"><path d="M169.768,283.954v28.547l-33.459,7.72c-11.546,2.653-24.416,3.979-38.608,3.979c-29.639,0-52.571-9.436-68.792-28.313  c-13.572-15.908-20.356-34.706-20.356-56.39c0-23.867,8.267-44.143,24.802-60.838c17.783-17.782,41.025-26.674,69.728-26.674  c12.168,0,24.102,1.637,35.8,4.916c10.764,2.963,22.059,13.799,31.886,20.506l-19.421,18.484l-8.189,1.873l5.85-9.429  c-15.133-14.771-32.823-28.16-51.074-28.16c-18.718,0-34.202,6.446-46.446,19.335C39.24,192.397,33.12,208.996,33.12,229.307  c0,23.122,7.407,42.884,22.229,59.285c15.911,17.5,36.11,26.249,60.602,26.249c10.138,0,20.042-1.947,29.716-5.852v-40.67  l-35.333,1.872l18.719-10.063h49.606l-6.084,5.851c-1.25,1.249-2.029,2.496-2.339,3.744  C169.922,272.531,169.768,279.273,169.768,283.954z"/><path d="M411.737,310.634c-6.002,5.171-11.781,8.817-17.333,10.945c-5.552,2.129-11.51,3.193-17.871,3.193  c-10.506,0-18.58-2.599-24.221-7.8c-5.644-5.2-8.464-11.842-8.464-19.933c0-4.743,1.065-9.074,3.196-12.997  c2.13-3.924,4.921-7.069,8.373-9.443c3.452-2.372,7.339-4.163,11.661-5.38c3.18-0.854,7.982-1.673,14.406-2.465  c13.085-1.581,22.719-3.468,28.902-5.656c0.059-2.248,0.09-3.678,0.09-4.286c0-6.69-1.531-11.405-4.593-14.141  c-4.142-3.707-10.295-5.564-18.457-5.564c-7.624,0-13.252,1.353-16.883,4.058c-3.633,2.708-6.318,7.498-8.059,14.368l-15.847-2.188  c1.44-6.872,3.812-12.42,7.113-16.649c3.3-4.224,8.072-7.479,14.316-9.758c6.241-2.282,13.474-3.423,21.699-3.423  c8.162,0,14.795,0.974,19.898,2.919c5.101,1.948,8.854,4.396,11.255,7.344c2.399,2.95,4.082,6.674,5.042,11.174  c0.54,2.798,0.811,7.845,0.811,15.143v21.894c0,15.266,0.344,24.919,1.035,28.964c0.689,4.045,2.055,7.921,4.097,11.63h-16.927  C413.298,319.18,412.217,315.196,411.737,310.634z M410.388,273.961c-6.928-0.305-38.503,2.844-47.001,14.823  c-1.609,2.268-2.25,4.942-2.25,7.801c0,4.379,1.634,8.027,4.906,10.945c3.271,2.92,8.059,4.38,14.362,4.38  c6.241,0,11.794-1.381,16.656-4.15c4.861-2.767,8.433-6.551,10.715-11.357c1.74-3.708,2.611-9.181,2.611-16.42V273.961z"/><path d="M451.985,206.253v-18.639h16.208v18.639H451.985z M451.985,322.611v-99.622h16.208v99.622H451.985z"/><path d="M487.503,322.611V187.615h16.207v134.997H487.503z"/><polygon points="244.812,285.689 218.096,311.717 249.798,288.984 "/><polygon points="303.762,224.353 303.762,228.972 256.572,263.178 209.286,228.972 209.286,224.353 189.355,224.353   189.355,323.326 209.286,323.326 209.286,258.338 198.235,248.818 209.286,256.808 209.286,256.771 218.695,263.613   230.905,272.441 230.899,272.488 256.462,291.006 256.462,291.096 256.509,291.131 256.572,291.086 256.585,291.096   256.585,291.076 282.148,272.488 282.143,272.441 294.352,263.613 303.762,256.771 303.762,256.808 314.813,248.818   303.762,258.338 303.762,323.326 323.691,323.326 323.691,224.353 "/><polygon points="268.436,285.689 295.15,311.717 263.451,288.984 "/><g><path d="M323.664,323.188H189.09v-99.08h134.574V323.188z M318.664,229.108H194.09v89.08h124.574V229.108L318.664,229.108z"/></g></svg>